<mxfile host="app.diagrams.net" modified="2023-09-04T05:02:49.043Z" agent="Mozilla/5.0 (X11; Ubuntu; Linux x86_64; rv:109.0) Gecko/20100101 Firefox/117.0" etag="V413AHbZQp9HQRl6lA6l" version="21.7.2" type="github">
  <diagram name="Page-1" id="8b3RUvsKwVkY5XQi4mJK">
    <mxGraphModel dx="1114" dy="615" grid="1" gridSize="10" guides="1" tooltips="1" connect="1" arrows="1" fold="1" page="1" pageScale="1" pageWidth="1390" pageHeight="980" math="0" shadow="0">
      <root>
        <mxCell id="0" />
        <mxCell id="1" parent="0" />
        <mxCell id="zOoTGc-9CBcz2V7OulLe-6" style="edgeStyle=orthogonalEdgeStyle;rounded=0;orthogonalLoop=1;jettySize=auto;html=1;exitX=1;exitY=0.5;exitDx=0;exitDy=0;" edge="1" parent="1" source="zOoTGc-9CBcz2V7OulLe-1" target="zOoTGc-9CBcz2V7OulLe-3">
          <mxGeometry relative="1" as="geometry" />
        </mxCell>
        <mxCell id="zOoTGc-9CBcz2V7OulLe-7" value="&lt;div&gt;CARTA&lt;/div&gt;&lt;div&gt;DEFENSA&lt;br&gt;&lt;/div&gt;" style="edgeLabel;html=1;align=center;verticalAlign=middle;resizable=0;points=[];" vertex="1" connectable="0" parent="zOoTGc-9CBcz2V7OulLe-6">
          <mxGeometry x="-0.05" y="-1" relative="1" as="geometry">
            <mxPoint as="offset" />
          </mxGeometry>
        </mxCell>
        <mxCell id="zOoTGc-9CBcz2V7OulLe-1" value="JUGADOR" style="rounded=0;whiteSpace=wrap;html=1;" vertex="1" parent="1">
          <mxGeometry x="200" y="290" width="120" height="60" as="geometry" />
        </mxCell>
        <mxCell id="zOoTGc-9CBcz2V7OulLe-4" style="edgeStyle=orthogonalEdgeStyle;rounded=0;orthogonalLoop=1;jettySize=auto;html=1;exitX=0;exitY=0.5;exitDx=0;exitDy=0;entryX=1;entryY=0.5;entryDx=0;entryDy=0;" edge="1" parent="1" source="zOoTGc-9CBcz2V7OulLe-2" target="zOoTGc-9CBcz2V7OulLe-3">
          <mxGeometry relative="1" as="geometry" />
        </mxCell>
        <mxCell id="zOoTGc-9CBcz2V7OulLe-5" value="CARTA ATAQUE" style="edgeLabel;html=1;align=center;verticalAlign=middle;resizable=0;points=[];" vertex="1" connectable="0" parent="zOoTGc-9CBcz2V7OulLe-4">
          <mxGeometry x="0.0125" y="2" relative="1" as="geometry">
            <mxPoint as="offset" />
          </mxGeometry>
        </mxCell>
        <mxCell id="zOoTGc-9CBcz2V7OulLe-2" value="&lt;div&gt;JUGADOR&lt;/div&gt;&lt;div&gt;ADYACENTE&lt;br&gt;&lt;/div&gt;" style="rounded=0;whiteSpace=wrap;html=1;" vertex="1" parent="1">
          <mxGeometry x="760" y="290" width="120" height="60" as="geometry" />
        </mxCell>
        <mxCell id="zOoTGc-9CBcz2V7OulLe-8" style="edgeStyle=orthogonalEdgeStyle;rounded=0;orthogonalLoop=1;jettySize=auto;html=1;exitX=0;exitY=0;exitDx=0;exitDy=0;entryX=0.5;entryY=0;entryDx=0;entryDy=0;" edge="1" parent="1" source="zOoTGc-9CBcz2V7OulLe-3" target="zOoTGc-9CBcz2V7OulLe-1">
          <mxGeometry relative="1" as="geometry">
            <Array as="points">
              <mxPoint x="498" y="270" />
              <mxPoint x="260" y="270" />
            </Array>
          </mxGeometry>
        </mxCell>
        <mxCell id="zOoTGc-9CBcz2V7OulLe-9" value="EFECTO" style="edgeLabel;html=1;align=center;verticalAlign=middle;resizable=0;points=[];" vertex="1" connectable="0" parent="zOoTGc-9CBcz2V7OulLe-8">
          <mxGeometry x="0.0977" y="-1" relative="1" as="geometry">
            <mxPoint as="offset" />
          </mxGeometry>
        </mxCell>
        <mxCell id="zOoTGc-9CBcz2V7OulLe-3" value="&lt;div&gt;APLICAR &lt;br&gt;&lt;/div&gt;&lt;div&gt;EFECTO&lt;br&gt;&lt;/div&gt;" style="ellipse;whiteSpace=wrap;html=1;" vertex="1" parent="1">
          <mxGeometry x="480" y="280" width="120" height="80" as="geometry" />
        </mxCell>
        <mxCell id="zOoTGc-9CBcz2V7OulLe-11" style="edgeStyle=orthogonalEdgeStyle;rounded=0;orthogonalLoop=1;jettySize=auto;html=1;entryX=0.5;entryY=1;entryDx=0;entryDy=0;" edge="1" parent="1" source="zOoTGc-9CBcz2V7OulLe-10" target="zOoTGc-9CBcz2V7OulLe-3">
          <mxGeometry relative="1" as="geometry" />
        </mxCell>
        <mxCell id="zOoTGc-9CBcz2V7OulLe-10" value="&lt;u&gt;DATOS DE PARTIDA Y JUGADORES&lt;br&gt;&lt;/u&gt;" style="text;html=1;align=center;verticalAlign=middle;resizable=0;points=[];autosize=1;strokeColor=none;fillColor=none;" vertex="1" parent="1">
          <mxGeometry x="430" y="448" width="220" height="30" as="geometry" />
        </mxCell>
      </root>
    </mxGraphModel>
  </diagram>
</mxfile>
